HIERARCHY
ROOT mixamorig:Hips
{
	OFFSET 0.000000 103.991501 0.000000
	CHANNELS 6 Xposition Yposition Zposition Xrotation Yrotation Zrotation
	JOINT mixamorig:Spine
	{
		OFFSET 0.000000 10.181602 0.131500
		CHANNELS 6 Xposition Yposition Zposition Xrotation Yrotation Zrotation
		JOINT mixamorig:Spine1
		{
			OFFSET 0.000000 10.083504 -1.000800
			CHANNELS 6 Xposition Yposition Zposition Xrotation Yrotation Zrotation
			JOINT mixamorig:Spine2
			{
				OFFSET 0.000000 9.100006 -1.373400
				CHANNELS 6 Xposition Yposition Zposition Xrotation Yrotation Zrotation
				JOINT mixamorig:Neck
				{
					OFFSET 0.000000 16.671707 -2.516200
					CHANNELS 6 Xposition Yposition Zposition Xrotation Yrotation Zrotation
					JOINT mixamorig:Head
					{
						OFFSET 0.000000 9.617905 1.685000
						CHANNELS 6 Xposition Yposition Zposition Xrotation Yrotation Zrotation
						JOINT mixamorig:HeadTop_End
						{
							OFFSET 0.000000 17.815201 2.585000
							CHANNELS 6 Xposition Yposition Zposition Xrotation Yrotation Zrotation
							End Site
							{
								OFFSET 0.000000 13.794495 0.000000
							}
						}
						JOINT mixamorig:LeftEye
						{
							OFFSET 3.067600 6.409500 9.283600
							CHANNELS 6 Xposition Yposition Zposition Xrotation Yrotation Zrotation
							End Site
							{
								OFFSET 0.000000 13.794495 0.000000
							}
						}
						JOINT mixamorig:RightEye
						{
							OFFSET -3.067600 6.409500 9.283500
							CHANNELS 6 Xposition Yposition Zposition Xrotation Yrotation Zrotation
							End Site
							{
								OFFSET 0.000000 13.794495 0.000000
							}
						}
					}
				}
				JOINT mixamorig:LeftShoulder
				{
					OFFSET 4.570400 10.945999 -2.628000
					CHANNELS 6 Xposition Yposition Zposition Xrotation Yrotation Zrotation
					JOINT mixamorig:LeftArm
					{
						OFFSET 10.592400 -0.524597 -2.232100
						CHANNELS 6 Xposition Yposition Zposition Xrotation Yrotation Zrotation
						JOINT mixamorig:LeftForeArm
						{
							OFFSET 27.841492 0.000107 0.000000
							CHANNELS 3 Xrotation Yrotation Zrotation
							JOINT mixamorig:LeftHand
							{
								OFFSET 28.328808 -0.000107 0.000000
								CHANNELS 3 Xrotation Yrotation Zrotation
								JOINT mixamorig:LeftHandThumb1
								{
									OFFSET 2.466103 -1.576218 2.681689
									CHANNELS 6 Xposition Yposition Zposition Xrotation Yrotation Zrotation
									JOINT mixamorig:LeftHandThumb2
									{
										OFFSET 3.229782 -1.864716 1.864716
										CHANNELS 6 Xposition Yposition Zposition Xrotation Yrotation Zrotation
										JOINT mixamorig:LeftHandThumb3
										{
											OFFSET 2.652611 -1.531494 1.531488
											CHANNELS 6 Xposition Yposition Zposition Xrotation Yrotation Zrotation
											JOINT mixamorig:LeftHandThumb4
											{
												OFFSET 1.954605 -1.128494 1.128493
												CHANNELS 6 Xposition Yposition Zposition Xrotation Yrotation Zrotation
												End Site
												{
													OFFSET 2.523392 0.000397 0.000386
												}
											}
										}
									}
								}
								JOINT mixamorig:LeftHandIndex1
								{
									OFFSET 9.109299 -0.518112 2.259867
									CHANNELS 6 Xposition Yposition Zposition Xrotation Yrotation Zrotation
									JOINT mixamorig:LeftHandIndex2
									{
										OFFSET 3.676407 0.000000 0.000000
										CHANNELS 3 Xrotation Yrotation Zrotation
										JOINT mixamorig:LeftHandIndex3
										{
											OFFSET 2.883095 0.000000 0.000000
											CHANNELS 3 Xrotation Yrotation Zrotation
											JOINT mixamorig:LeftHandIndex4
											{
												OFFSET 2.392700 0.000000 0.000000
												CHANNELS 3 Xrotation Yrotation Zrotation
												End Site
												{
													OFFSET 2.392700 0.000000 0.000000
												}
											}
										}
									}
								}
								JOINT mixamorig:LeftHandMiddle1
								{
									OFFSET 9.533401 0.000000 0.000000
									CHANNELS 6 Xposition Yposition Zposition Xrotation Yrotation Zrotation
									JOINT mixamorig:LeftHandMiddle2
									{
										OFFSET 3.698196 0.000000 0.000000
										CHANNELS 3 Xrotation Yrotation Zrotation
										JOINT mixamorig:LeftHandMiddle3
										{
											OFFSET 2.950897 0.000000 0.000000
											CHANNELS 3 Xrotation Yrotation Zrotation
											JOINT mixamorig:LeftHandMiddle4
											{
												OFFSET 2.833893 0.000000 0.000000
												CHANNELS 3 Xrotation Yrotation Zrotation
												End Site
												{
													OFFSET 2.833900 0.000000 0.000000
												}
											}
										}
									}
								}
								JOINT mixamorig:LeftHandRing1
								{
									OFFSET 9.104500 -0.043060 -1.865119
									CHANNELS 6 Xposition Yposition Zposition Xrotation Yrotation Zrotation
									JOINT mixamorig:LeftHandRing2
									{
										OFFSET 3.154007 0.000000 0.000000
										CHANNELS 3 Xrotation Yrotation Zrotation
										JOINT mixamorig:LeftHandRing3
										{
											OFFSET 2.937691 0.000000 0.000000
											CHANNELS 3 Xrotation Yrotation Zrotation
											JOINT mixamorig:LeftHandRing4
											{
												OFFSET 2.647507 0.000000 0.000000
												CHANNELS 3 Xrotation Yrotation Zrotation
												End Site
												{
													OFFSET 2.647499 0.000000 0.000000
												}
											}
										}
									}
								}
								JOINT mixamorig:LeftHandPinky1
								{
									OFFSET 8.077797 -0.486984 -3.806321
									CHANNELS 6 Xposition Yposition Zposition Xrotation Yrotation Zrotation
									JOINT mixamorig:LeftHandPinky2
									{
										OFFSET 3.600006 0.000000 0.000000
										CHANNELS 3 Xrotation Yrotation Zrotation
										JOINT mixamorig:LeftHandPinky3
										{
											OFFSET 2.114189 0.000000 0.000000
											CHANNELS 3 Xrotation Yrotation Zrotation
											JOINT mixamorig:LeftHandPinky4
											{
												OFFSET 1.975693 0.000000 0.000000
												CHANNELS 3 Xrotation Yrotation Zrotation
												End Site
												{
													OFFSET 1.975700 0.000000 0.000000
												}
											}
										}
									}
								}
							}
						}
					}
				}
				JOINT mixamorig:RightShoulder
				{
					OFFSET -4.570000 10.946198 -2.628000
					CHANNELS 6 Xposition Yposition Zposition Xrotation Yrotation Zrotation
					JOINT mixamorig:RightArm
					{
						OFFSET -10.592800 -0.524796 -2.232100
						CHANNELS 6 Xposition Yposition Zposition Xrotation Yrotation Zrotation
						JOINT mixamorig:RightForeArm
						{
							OFFSET -27.841492 0.000000 0.000000
							CHANNELS 3 Xrotation Yrotation Zrotation
							JOINT mixamorig:RightHand
							{
								OFFSET -28.328808 0.000000 0.000000
								CHANNELS 6 Xposition Yposition Zposition Xrotation Yrotation Zrotation
								JOINT mixamorig:RightHandPinky1
								{
									OFFSET -8.076698 -0.486725 -3.806227
									CHANNELS 6 Xposition Yposition Zposition Xrotation Yrotation Zrotation
									JOINT mixamorig:RightHandPinky2
									{
										OFFSET -3.599998 0.000000 0.000000
										CHANNELS 6 Xposition Yposition Zposition Xrotation Yrotation Zrotation
										JOINT mixamorig:RightHandPinky3
										{
											OFFSET -2.114197 0.000000 0.000000
											CHANNELS 3 Xrotation Yrotation Zrotation
											JOINT mixamorig:RightHandPinky4
											{
												OFFSET -1.975693 0.000000 0.000000
												CHANNELS 3 Xrotation Yrotation Zrotation
												End Site
												{
													OFFSET -1.975700 0.000000 0.000000
												}
											}
										}
									}
								}
								JOINT mixamorig:RightHandRing1
								{
									OFFSET -9.103600 -0.043030 -1.865120
									CHANNELS 6 Xposition Yposition Zposition Xrotation Yrotation Zrotation
									JOINT mixamorig:RightHandRing2
									{
										OFFSET -3.154007 0.000000 0.000000
										CHANNELS 3 Xrotation Yrotation Zrotation
										JOINT mixamorig:RightHandRing3
										{
											OFFSET -2.937691 0.000000 0.000000
											CHANNELS 3 Xrotation Yrotation Zrotation
											JOINT mixamorig:RightHandRing4
											{
												OFFSET -2.647507 0.000000 0.000000
												CHANNELS 3 Xrotation Yrotation Zrotation
												End Site
												{
													OFFSET -2.647499 0.000000 0.000000
												}
											}
										}
									}
								}
								JOINT mixamorig:RightHandMiddle1
								{
									OFFSET -9.532501 0.000000 0.000000
									CHANNELS 6 Xposition Yposition Zposition Xrotation Yrotation Zrotation
									JOINT mixamorig:RightHandMiddle2
									{
										OFFSET -3.698196 0.000000 0.000000
										CHANNELS 3 Xrotation Yrotation Zrotation
										JOINT mixamorig:RightHandMiddle3
										{
											OFFSET -2.950897 0.000000 0.000000
											CHANNELS 3 Xrotation Yrotation Zrotation
											JOINT mixamorig:RightHandMiddle4
											{
												OFFSET -2.833900 0.000000 0.000000
												CHANNELS 6 Xposition Yposition Zposition Xrotation Yrotation Zrotation
												End Site
												{
													OFFSET -2.833893 0.000000 -0.000100
												}
											}
										}
									}
								}
								JOINT mixamorig:RightHandIndex1
								{
									OFFSET -9.108299 -0.517853 2.259859
									CHANNELS 6 Xposition Yposition Zposition Xrotation Yrotation Zrotation
									JOINT mixamorig:RightHandIndex2
									{
										OFFSET -3.676407 0.000000 0.000000
										CHANNELS 3 Xrotation Yrotation Zrotation
										JOINT mixamorig:RightHandIndex3
										{
											OFFSET -2.883095 0.000000 0.000000
											CHANNELS 3 Xrotation Yrotation Zrotation
											JOINT mixamorig:RightHandIndex4
											{
												OFFSET -2.392700 0.000000 0.000000
												CHANNELS 3 Xrotation Yrotation Zrotation
												End Site
												{
													OFFSET -2.392700 0.000000 0.000000
												}
											}
										}
									}
								}
								JOINT mixamorig:RightHandThumb1
								{
									OFFSET -2.464798 -1.573944 2.681868
									CHANNELS 6 Xposition Yposition Zposition Xrotation Yrotation Zrotation
									JOINT mixamorig:RightHandThumb2
									{
										OFFSET -3.229782 -1.864716 1.864716
										CHANNELS 6 Xposition Yposition Zposition Xrotation Yrotation Zrotation
										JOINT mixamorig:RightHandThumb3
										{
											OFFSET -2.652542 -1.531448 1.531448
											CHANNELS 6 Xposition Yposition Zposition Xrotation Yrotation Zrotation
											JOINT mixamorig:RightHandThumb4
											{
												OFFSET -1.954605 -1.128494 1.128493
												CHANNELS 6 Xposition Yposition Zposition Xrotation Yrotation Zrotation
												End Site
												{
													OFFSET -2.523392 0.000412 0.000398
												}
											}
										}
									}
								}
							}
						}
					}
				}
			}
		}
	}
	JOINT mixamorig:LeftUpLeg
	{
		OFFSET 8.207800 -6.751701 -1.599600
		CHANNELS 6 Xposition Yposition Zposition Xrotation Yrotation Zrotation
		JOINT mixamorig:LeftLeg
		{
			OFFSET 0.000000 -44.370499 0.284600
			CHANNELS 6 Xposition Yposition Zposition Xrotation Yrotation Zrotation
			JOINT mixamorig:LeftFoot
			{
				OFFSET 0.000000 -44.427898 -2.982200
				CHANNELS 6 Xposition Yposition Zposition Xrotation Yrotation Zrotation
				JOINT mixamorig:LeftToeBase
				{
					OFFSET 0.000000 -8.728700 10.710600
					CHANNELS 6 Xposition Yposition Zposition Xrotation Yrotation Zrotation
					JOINT mixamorig:LeftToe_End
					{
						OFFSET 0.000000 -0.000700 9.278099
						CHANNELS 6 Xposition Yposition Zposition Xrotation Yrotation Zrotation
						End Site
						{
							OFFSET 0.000000 0.000000 9.278101
						}
					}
				}
			}
		}
	}
	JOINT mixamorig:RightUpLeg
	{
		OFFSET -8.207800 -6.751701 -1.599600
		CHANNELS 6 Xposition Yposition Zposition Xrotation Yrotation Zrotation
		JOINT mixamorig:RightLeg
		{
			OFFSET 0.000000 -44.370499 0.286200
			CHANNELS 6 Xposition Yposition Zposition Xrotation Yrotation Zrotation
			JOINT mixamorig:RightFoot
			{
				OFFSET 0.000000 -44.427700 -2.983800
				CHANNELS 6 Xposition Yposition Zposition Xrotation Yrotation Zrotation
				JOINT mixamorig:RightToeBase
				{
					OFFSET 0.000000 -8.728700 10.710600
					CHANNELS 6 Xposition Yposition Zposition Xrotation Yrotation Zrotation
					JOINT mixamorig:RightToe_End
					{
						OFFSET 0.000000 -0.000700 9.278100
						CHANNELS 6 Xposition Yposition Zposition Xrotation Yrotation Zrotation
						End Site
						{
							OFFSET 0.000000 0.000000 9.278101
						}
					}
				}
			}
		}
	}
}
MOTION
Frames: 4
Frame Time: 0.033333
4.242870 94.345436 24.553333 1.063388 -54.016677 2.234219 -0.000003 10.181600 0.131499 6.809889 1.087799 -0.435725 -0.000002 10.083503 -1.000798 10.064075 2.162699 -1.975904 0.000000 9.100014 -1.373404 10.053924 2.268961 -1.913846 -0.000000 16.671703 -2.516199 8.005451 3.767928 -6.440519 -0.000002 9.617910 1.685009 12.669110 16.497680 -18.711522 0.000003 17.815201 2.585015 0.000000 0.000000 0.000000 3.067603 6.409500 9.283628 0.000000 0.000000 0.000000 -3.067598 6.409500 9.283519 0.000000 0.000000 0.000000 4.570404 10.946010 -2.628000 -1.998256 12.689868 -6.082652 10.592418 -0.524594 -2.232104 -24.881723 -23.999722 -65.171493 0.000511 -112.901176 0.000790 15.718456 1.912293 11.855672 2.466089 -1.576191 2.681684 9.056406 10.601968 -5.965555 3.229802 -1.864713 1.864707 9.417680 22.103535 3.251298 2.652629 -1.531480 1.531477 2.732979 51.440067 6.459141 1.954595 -1.128493 1.128486 0.000000 -0.000002 0.000001 9.109277 -0.518115 2.259858 5.468818 6.735377 -78.128061 8.288569 6.736418 -101.829248 5.506379 6.743102 -78.448056 0.000002 0.000003 0.000001 9.533399 -0.000013 -0.000004 5.466913 6.734975 -78.111853 8.290480 6.736025 -101.845442 5.506375 6.743112 -78.448049 0.000001 -0.000002 0.000002 9.104476 -0.043065 -1.865132 5.468818 6.735377 -78.128061 8.288570 6.736420 -101.829221 5.506375 6.743112 -78.448049 -0.000001 0.000002 -0.000001 8.077799 -0.486987 -3.806332 7.578366 7.180481 -77.998848 8.273337 2.652714 -101.675569 5.501547 6.742127 -78.406986 -0.000002 -0.000001 0.000001 -4.569998 10.946203 -2.627997 3.976508 15.848641 -5.271393 -10.592794 -0.524798 -2.232091 -25.395355 35.388381 63.759468 0.000024 125.952486 -0.000026 -28.328817 0.000000 -0.000002 2.104065 5.538434 -12.307379 -8.076701 -0.486719 -3.806221 5.628763 -6.822404 79.026785 -3.599998 0.000017 -0.000010 7.017420 -6.947887 90.571963 3.897157 -6.245457 63.897028 0.000001 0.000000 -0.000001 -9.103579 -0.043025 -1.865117 5.628765 -6.822403 79.026785 7.017414 -6.947887 90.571949 3.897162 -6.245460 63.897028 -0.000001 0.000001 0.000000 -9.532494 -0.000003 0.000003 5.628765 -6.822403 79.026785 7.017417 -6.947884 90.571949 3.897154 -6.245458 63.897028 -2.833881 0.000015 0.000012 -0.000004 0.000001 0.000001 -9.108292 -0.517850 2.259859 5.628765 -6.822403 79.026785 7.017414 -6.947887 90.571949 3.897162 -6.245460 63.897028 -0.000001 0.000001 0.000000 -2.464802 -1.573938 2.681868 -0.815741 -16.226002 6.504808 -3.229777 -1.864711 1.864733 17.424106 -21.200378 1.267102 -2.652543 -1.531455 1.531447 18.064203 -57.087643 -8.376492 -1.954598 -1.128526 1.128498 0.000001 0.000002 0.000000 8.207799 -6.751700 -1.599597 -34.057003 5.987675 20.015333 -0.000002 -44.370502 0.284596 50.950455 -8.949487 5.851916 0.000004 -44.427891 -2.982198 -7.138357 -9.625234 -30.202762 0.000002 -8.728703 10.710597 -3.735007 -0.065890 2.540899 -0.000000 -0.000701 9.278094 -0.000001 0.000000 -0.000000 -8.207798 -6.751693 -1.599599 -16.378498 -11.381061 -25.972587 0.000003 -44.370495 0.286200 40.388958 -2.087980 -6.064260 0.000004 -44.427700 -2.983798 -3.924626 -2.984348 29.843371 -0.000002 -8.728701 10.710602 -9.082661 0.019150 -0.439346 -0.000001 -0.000700 9.278098 -0.000000 0.000000 0.000000 
4.328600 94.624481 22.798687 0.674919 -54.515107 0.458888 0.000001 10.181606 0.131500 6.763182 0.956456 -0.013713 0.000001 10.083508 -1.000799 9.877238 1.984540 -1.074684 -0.000003 9.099998 -1.373402 9.861836 2.091290 -1.019592 -0.000002 16.671707 -2.516204 8.087960 3.796751 -6.075939 -0.000000 9.617922 1.685003 13.092177 17.117038 -19.135543 -0.000001 17.815201 2.585007 0.000002 -0.000001 0.000001 3.067598 6.409500 9.283599 0.000002 -0.000001 0.000001 -3.067600 6.409500 9.283506 0.000002 -0.000001 0.000001 4.570402 10.946016 -2.628008 -2.020465 12.451556 -5.166732 10.592406 -0.524609 -2.232091 -24.166406 -24.137665 -66.559258 0.000543 -111.469350 0.000834 15.279734 1.774448 11.477736 2.466101 -1.576227 2.681700 9.056404 10.601968 -5.965554 3.229789 -1.864704 1.864709 9.417677 22.103535 3.251299 2.652625 -1.531469 1.531483 2.732972 51.440060 6.459143 1.954601 -1.128480 1.128502 0.000000 -0.000002 0.000002 9.109301 -0.518126 2.259872 5.468819 6.735378 -78.128068 8.288566 6.736420 -101.829241 5.506372 6.743100 -78.448056 -0.000002 -0.000001 0.000003 9.533411 -0.000027 0.000003 5.466916 6.734971 -78.111853 8.290478 6.736027 -101.845442 5.506372 6.743108 -78.448049 -0.000002 0.000001 -0.000001 9.104499 -0.043071 -1.865120 5.468819 6.735378 -78.128068 8.288569 6.736423 -101.829228 5.506375 6.743111 -78.448042 -0.000000 -0.000000 -0.000001 8.077809 -0.486998 -3.806318 7.578366 7.180477 -77.998848 8.273339 2.652714 -101.675569 5.501551 6.742123 -78.406993 -0.000001 0.000001 0.000001 -4.570001 10.946203 -2.628009 3.965876 16.162162 -4.421225 -10.592796 -0.524792 -2.232101 -25.405766 35.168326 63.821486 0.000023 126.026457 -0.000026 -28.328808 -0.000019 -0.000005 2.242357 5.350839 -12.280588 -8.076732 -0.486731 -3.806219 5.628764 -6.822402 79.026778 -3.600017 0.000007 0.000009 7.017422 -6.947887 90.571956 3.897158 -6.245458 63.897028 -0.000000 0.000001 -0.000001 -9.103593 -0.043027 -1.865110 5.628765 -6.822400 79.026785 7.017418 -6.947887 90.571949 3.897160 -6.245455 63.897028 -0.000001 -0.000001 -0.000000 -9.532493 -0.000007 0.000003 5.628765 -6.822400 79.026785 7.017418 -6.947887 90.571949 3.897154 -6.245460 63.897034 -2.833887 0.000015 -0.000001 0.000002 -0.000002 0.000001 -9.108292 -0.517852 2.259862 5.628765 -6.822400 79.026785 7.017418 -6.947887 90.571949 3.897160 -6.245455 63.897028 -0.000001 -0.000001 -0.000000 -2.464809 -1.573955 2.681881 -0.815740 -16.226004 6.504808 -3.229776 -1.864696 1.864702 17.424110 -21.200378 1.267101 -2.652537 -1.531440 1.531465 18.064203 -57.087643 -8.376495 -1.954591 -1.128524 1.128501 0.000001 0.000003 0.000001 8.207798 -6.751703 -1.599599 -31.741259 7.192046 19.497006 -0.000002 -44.370495 0.284600 51.389677 -9.072978 5.511338 0.000001 -44.427895 -2.982196 -9.150516 -5.758518 -24.994000 -0.000003 -8.728696 10.710602 -7.933730 -0.116116 3.369325 0.000003 -0.000700 9.278099 0.000000 0.000003 -0.000001 -8.207804 -6.751705 -1.599599 -18.396631 -10.910129 -25.380659 0.000004 -44.370502 0.286202 44.300450 3.478827 -5.153026 0.000002 -44.427696 -2.983802 -3.422154 -2.876760 30.208301 0.000002 -8.728700 10.710599 -8.246587 0.048238 -2.186369 0.000000 -0.000700 9.278100 0.000000 0.000001 0.000000 
4.199368 94.410683 21.019464 0.250266 -54.319542 -1.465639 -0.000004 10.181602 0.131501 6.560318 0.816530 0.430082 0.000002 10.083506 -1.000799 9.481198 1.727089 -0.073073 0.000004 9.100023 -1.373398 9.461311 1.829503 -0.029208 -0.000002 16.671709 -2.516203 8.216487 3.755292 -5.662075 -0.000001 9.617912 1.684997 13.753377 17.354087 -19.461781 0.000000 17.815186 2.585004 -0.000003 0.000001 -0.000001 3.067599 6.409501 9.283604 -0.000003 0.000001 -0.000001 -3.067601 6.409501 9.283494 -0.000003 0.000001 -0.000001 4.570403 10.946014 -2.628001 -1.953167 11.925236 -4.330702 10.592410 -0.524587 -2.232096 -23.473127 -23.452991 -66.690855 0.000625 -109.137673 0.000896 13.920566 1.415177 11.039504 2.466097 -1.576210 2.681696 9.056405 10.601970 -5.965553 3.229797 -1.864714 1.864724 9.417678 22.103535 3.251302 2.652617 -1.531479 1.531471 2.732979 51.440060 6.459141 1.954602 -1.128493 1.128483 -0.000000 -0.000002 0.000001 9.109291 -0.518109 2.259873 5.468818 6.735378 -78.128061 8.288568 6.736414 -101.829241 5.506374 6.743103 -78.448063 -0.000001 0.000002 0.000003 9.533404 -0.000003 0.000008 5.466917 6.734975 -78.111847 8.290476 6.736024 -101.845449 5.506378 6.743108 -78.448049 -0.000001 0.000002 0.000001 9.104488 -0.043065 -1.865107 5.468820 6.735380 -78.128061 8.288572 6.736421 -101.829221 5.506375 6.743109 -78.448049 -0.000000 -0.000001 0.000003 8.077797 -0.486998 -3.806312 7.578366 7.180481 -77.998841 8.273342 2.652713 -101.675562 5.501559 6.742122 -78.406993 0.000001 0.000002 0.000002 -4.570000 10.946205 -2.628001 3.821797 15.956510 -3.454210 -10.592800 -0.524814 -2.232101 -25.430934 35.153587 64.618808 0.000022 126.333105 -0.000018 -28.328800 -0.000026 0.000009 2.653247 5.120477 -12.280215 -8.076712 -0.486727 -3.806209 5.628760 -6.822409 79.026785 -3.599999 0.000002 0.000010 7.017422 -6.947891 90.571963 3.897160 -6.245458 63.897028 0.000001 0.000001 -0.000001 -9.103596 -0.043037 -1.865103 5.628763 -6.822405 79.026778 7.017416 -6.947888 90.571949 3.897156 -6.245460 63.897028 -0.000000 -0.000001 0.000002 -9.532510 -0.000001 0.000011 5.628763 -6.822405 79.026778 7.017416 -6.947888 90.571949 3.897154 -6.245457 63.897028 -2.833890 0.000001 0.000007 0.000000 -0.000001 -0.000001 -9.108308 -0.517846 2.259879 5.628763 -6.822405 79.026778 7.017416 -6.947888 90.571949 3.897156 -6.245460 63.897028 -0.000000 -0.000001 0.000002 -2.464804 -1.573939 2.681887 -0.815740 -16.226004 6.504807 -3.229785 -1.864695 1.864726 17.424108 -21.200378 1.267102 -2.652543 -1.531455 1.531451 18.064209 -57.087643 -8.376493 -1.954605 -1.128509 1.128496 -0.000001 -0.000001 -0.000000 8.207798 -6.751712 -1.599596 -29.694507 8.011510 19.455253 0.000003 -44.370499 0.284599 48.986035 -9.140845 6.491807 0.000000 -44.427895 -2.982196 -12.185742 -1.817180 -18.210253 0.000001 -8.728700 10.710601 -7.662805 -0.085614 2.912742 -0.000003 -0.000700 9.278096 0.000000 -0.000001 0.000000 -8.207805 -6.751717 -1.599600 -19.275040 -11.067662 -25.097943 0.000001 -44.370499 0.286200 47.232667 8.808553 -4.239944 0.000003 -44.427700 -2.983800 -5.689956 -1.600680 30.321327 0.000002 -8.728701 10.710601 -6.384790 0.030812 -1.743756 0.000001 -0.000700 9.278101 -0.000001 -0.000001 0.000000 
3.858653 93.657700 18.968170 -0.308329 -53.324776 -2.927267 -0.000000 10.181602 0.131499 6.366554 0.748118 0.660372 -0.000001 10.083496 -1.000798 9.138130 1.537495 0.507391 0.000001 9.100003 -1.373403 9.117955 1.624310 0.543707 0.000000 16.671713 -2.516199 8.161300 3.615918 -5.173211 0.000001 9.617912 1.684987 14.322616 16.985145 -19.476527 0.000003 17.815201 2.584995 -0.000001 0.000000 -0.000001 3.067601 6.409515 9.283592 -0.000001 0.000000 -0.000001 -3.067597 6.409500 9.283487 -0.000001 0.000000 -0.000001 4.570402 10.946029 -2.628002 -1.778170 11.133353 -3.806063 10.592425 -0.524586 -2.232093 -23.651649 -22.571622 -65.206259 0.000727 -106.258721 0.001002 12.365480 0.893087 10.750425 2.466100 -1.576213 2.681702 9.056405 10.601970 -5.965558 3.229794 -1.864699 1.864723 9.417678 22.103535 3.251300 2.652618 -1.531500 1.531468 2.732978 51.440067 6.459137 1.954613 -1.128478 1.128495 0.000000 0.000000 -0.000000 9.109285 -0.518122 2.259877 5.468822 6.735380 -78.128061 8.288566 6.736418 -101.829241 5.506380 6.743097 -78.448056 -0.000002 0.000003 0.000002 9.533401 -0.000027 0.000014 5.466917 6.734972 -78.111853 8.290477 6.736026 -101.845449 5.506376 6.743110 -78.448049 -0.000000 -0.000001 0.000003 9.104486 -0.043074 -1.865105 5.468822 6.735380 -78.128061 8.288569 6.736423 -101.829221 5.506373 6.743108 -78.448049 -0.000002 0.000002 -0.000001 8.077817 -0.487007 -3.806312 7.578369 7.180477 -77.998841 8.273338 2.652716 -101.675569 5.501553 6.742126 -78.406986 -0.000002 0.000002 0.000003 -4.570001 10.946192 -2.628001 3.494261 14.945122 -2.274949 -10.592802 -0.524813 -2.232103 -26.101028 35.449252 66.369331 -0.000008 126.497030 -0.000001 -28.328827 0.000005 0.000011 3.219388 5.013622 -12.203526 -8.076700 -0.486718 -3.806226 5.628762 -6.822405 79.026778 -3.600011 0.000019 0.000002 7.017420 -6.947888 90.571963 3.897158 -6.245456 63.897034 -0.000003 -0.000000 -0.000000 -9.103580 -0.043027 -1.865118 5.628766 -6.822399 79.026785 7.017417 -6.947887 90.571949 3.897159 -6.245457 63.897028 -0.000003 0.000002 -0.000001 -9.532495 -0.000006 0.000009 5.628766 -6.822399 79.026785 7.017417 -6.947887 90.571949 3.897155 -6.245456 63.897034 -2.833885 0.000015 0.000013 -0.000001 -0.000000 -0.000000 -9.108309 -0.517852 2.259872 5.628766 -6.822399 79.026785 7.017417 -6.947887 90.571949 3.897159 -6.245457 63.897028 -0.000003 0.000002 -0.000001 -2.464810 -1.573951 2.681881 -0.815740 -16.226002 6.504808 -3.229790 -1.864695 1.864727 17.424111 -21.200380 1.267101 -2.652545 -1.531457 1.531436 18.064204 -57.087643 -8.376496 -1.954593 -1.128482 1.128505 -0.000003 0.000003 -0.000002 8.207799 -6.751696 -1.599598 -28.722656 7.819127 19.801996 -0.000001 -44.370502 0.284599 46.780218 -8.698057 8.174043 0.000003 -44.427902 -2.982199 -16.660194 0.275079 -15.940383 0.000001 -8.728700 10.710601 -4.417060 0.000003 -0.000002 0.000005 -0.000700 9.278104 0.000000 -0.000002 -0.000000 -8.207799 -6.751703 -1.599601 -18.714017 -11.291558 -24.902002 0.000000 -44.370506 0.286202 48.409662 8.755415 -4.071571 -0.000000 -44.427700 -2.983800 -9.548038 1.783096 30.290212 0.000002 -8.728700 10.710601 -3.605954 0.020973 -1.440141 -0.000001 -0.000700 9.278102 -0.000000 -0.000001 0.000001 
